<?xml version="1.0" standalone="no"?><!DOCTYPE svg PUBLIC "-//W3C//DTD SVG 1.1//EN" "http://www.w3.org/Graphics/SVG/1.1/DTD/svg11.dtd"><svg t="1638884295250" class="icon" viewBox="0 0 1049 1024" version="1.1" xmlns="http://www.w3.org/2000/svg" p-id="4177" xmlns:xlink="http://www.w3.org/1999/xlink" width="204.8828125" height="200"><defs><style type="text/css"></style></defs><path d="M316.629323 2.909296c-47.817154 0-125.605825 50.562636-198.361112 126.749776-65.66279 68.637063-122.173972 154.662181-118.055748 208.885461a51.020217 51.020217 0 0 0 15.100154 33.403371 29.285147 29.285147 0 0 0 5.033385 3.889433 248.466167 248.466167 0 0 0 142.07872 51.020217L293.521512 597.76384a375.444733 375.444733 0 0 0 55.824811 263.795111 68.637063 68.637063 0 0 0 68.637062 29.971518 564.425446 564.425446 0 0 0 292.622678-140.477189l326.941209 265.625433 1.601531-1.372741-274.548251-318.247181a562.595124 562.595124 0 0 0 129.495259-297.427272v-9.609189a68.637063 68.637063 0 0 0-33.403371-57.883923 375.902314 375.902314 0 0 0-200.191433-53.079328 345.244426 345.244426 0 0 0-66.349161 7.778867l-175.71088-122.631552A256.473825 256.473825 0 0 0 357.58277 18.695821s0-1.830322-1.601531-2.516693A52.850538 52.850538 0 0 0 316.629323 2.909296z m519.353775 368.809818a22.879021 22.879021 0 0 1 10.295559 21.735069A521.641677 521.641677 0 0 1 412.03484 846.001217a22.879021 22.879021 0 0 1-22.879021-9.380398 327.85637 327.85637 0 0 1-48.961105-228.79021 326.941209 326.941209 0 0 0 264.939063-276.607362 323.280566 323.280566 0 0 1 230.849321 40.495867z m-274.548251-51.706588a281.640748 281.640748 0 0 1-235.653916 243.203993L219.851064 423.196911a246.407055 246.407055 0 0 0 196.53079-204.080867z m-187.607972-142.07872a199.962643 199.962643 0 0 1-195.844419 203.394496h-2.059112a195.386839 195.386839 0 0 1-68.637063-11.43951A522.099257 522.099257 0 0 0 251.881693 258.01038a531.937236 531.937236 0 0 0 105.243497-150.772748 191.954986 191.954986 0 0 1 15.786524 70.696174zM322.577868 48.667338c7.778867 10.75314-13.041042 81.449314-104.099545 176.626042s-160.153146 118.513328-170.448706 111.649622a15.100154 15.100154 0 0 1-2.059112-5.490965c0-21.50628 24.938133-86.482699 105.472287-170.677496 90.829713-94.490356 160.153146-118.284538 171.135076-112.107203z" p-id="4178"></path><path d="M1039.148803 1015.305972l7.321287 8.694028-8.922818-7.321287z" p-id="4179"></path><path d="M797.088762 425.027232a375.444733 375.444733 0 0 1-52.392958 140.248399 9.380399 9.380399 0 0 1 0 2.059111l-1.830322 2.974273a22.879021 22.879021 0 0 1-18.532006 8.694028 22.879021 22.879021 0 0 1-6.863707-1.372741 18.532007 18.532007 0 0 1-8.465238-5.033385 22.879021 22.879021 0 0 1-7.321286-17.159265 22.879021 22.879021 0 0 1 2.059112-8.922819 9.380399 9.380399 0 0 1 1.143951-2.059112 7.778867 7.778867 0 0 0 1.372741-2.745482 326.026048 326.026048 0 0 0 45.758042-123.546713 22.879021 22.879021 0 0 1 27.912405-18.989587 22.879021 22.879021 0 0 1 17.159266 25.853293z" p-id="4180"></path></svg>